<?xml version="1.0" encoding="UTF-8" standalone="no"?>
<svg
   xmlns:dc="http://purl.org/dc/elements/1.1/"
   xmlns:cc="http://creativecommons.org/ns#"
   xmlns:rdf="http://www.w3.org/1999/02/22-rdf-syntax-ns#"
   xmlns:svg="http://www.w3.org/2000/svg"
   xmlns="http://www.w3.org/2000/svg"
   viewBox="0 0 192.65067 208.52133"
   height="208.52133"
   width="192.65067"
   xml:space="preserve"
   id="svg2"
   version="1.1"><metadata
     id="metadata8"><rdf:RDF><cc:Work
         rdf:about=""><dc:format>image/svg+xml</dc:format><dc:type
           rdf:resource="http://purl.org/dc/dcmitype/StillImage" /></cc:Work></rdf:RDF></metadata><defs
     id="defs6"><clipPath
       id="clipPath18"
       clipPathUnits="userSpaceOnUse"><path
         id="path16"
         d="M 0,156.391 H 144.488 V 0 H 0 Z" /></clipPath></defs><g
     transform="matrix(1.3333333,0,0,-1.3333333,0,208.52133)"
     id="g10"><g
       id="g12"><g
         clip-path="url(#clipPath18)"
         id="g14"><g
           transform="translate(30.7959,101.7617)"
           id="g20"><path
             id="path22"
             style="fill:#fdc300;fill-opacity:1;fill-rule:nonzero;stroke:none"
             d="m 0,0 -30.796,6.357 14.481,-9.524 H 3.251 79.745 99.212 L 113.692,6.357 82.984,0.018 82.896,0 C 81.765,1.988 80.492,3.885 79.095,5.681 79.09,5.687 79.085,5.696 79.079,5.703 L 96.741,31.727 70.797,14.117 70.719,14.064 c -1.797,1.397 -3.692,2.666 -5.678,3.8 -0.008,0.006 -0.018,0.012 -0.025,0.017 L 71.374,48.677 54.141,22.478 54.095,22.409 c -2.178,0.598 -4.417,1.042 -6.706,1.327 -0.01,10e-4 -0.018,0.003 -0.028,0.004 L 41.448,54.629 35.554,23.833 35.536,23.74 c -2.289,-0.283 -4.525,-0.727 -6.702,-1.323 -0.01,-0.003 -0.021,-0.004 -0.031,-0.008 l -17.279,26.268 6.338,-30.708 0.019,-0.09 c -1.988,-1.131 -3.884,-2.402 -5.68,-3.8 -0.008,-0.005 -0.015,-0.01 -0.022,-0.016 L -13.845,31.727 3.765,5.779 3.817,5.703 C 2.419,3.908 1.149,2.012 0.017,0.026 0.011,0.017 0.005,0.009 0,0" /></g><g
           transform="translate(113.6924,54.6289)"
           id="g24"><path
             id="path26"
             style="fill:#fdc300;fill-opacity:1;fill-rule:nonzero;stroke:none"
             d="M 0,0 30.796,-6.359 16.313,3.168 H -3.251 -79.745 -99.21 l -14.482,-9.527 30.711,6.341 0.084,0.018 c 1.132,-1.988 2.404,-3.884 3.801,-5.681 0.006,-0.006 0.011,-0.015 0.017,-0.022 l -17.662,-26.024 25.946,17.609 0.078,0.053 c 1.794,-1.398 3.69,-2.667 5.675,-3.8 0.009,-0.005 0.018,-0.012 0.026,-0.016 l -6.356,-30.797 17.231,26.198 0.047,0.07 c 2.177,-0.599 4.416,-1.041 6.706,-1.327 0.009,-0.001 0.018,-0.003 0.027,-0.005 l 5.913,-30.887 5.894,30.795 0.019,0.092 c 2.287,0.285 4.524,0.726 6.701,1.324 0.01,0.002 0.022,0.005 0.032,0.008 l 17.28,-26.268 -6.343,30.712 -0.016,0.083 c 1.985,1.133 3.882,2.406 5.681,3.801 0.007,0.006 0.014,0.011 0.022,0.017 L 13.845,-31.727 -3.764,-5.78 -3.817,-5.703 c 1.396,1.795 2.668,3.691 3.8,5.676 C -0.013,-0.018 -0.004,-0.009 0,0" /></g><g
           transform="translate(26.2515,76.1436)"
           id="g28"><path
             id="path30"
             style="fill:#fdc300;fill-opacity:1;fill-rule:nonzero;stroke:none"
             d="M 0,0 C 0.438,0.013 0.863,-0.101 1.275,-0.339 1.927,-0.735 2.25,-1.416 2.273,-2.354 2.279,-2.581 2.282,-2.81 2.251,-3.067 2.039,-5.021 1.076,-5.996 -0.637,-5.996 c -0.13,0 -0.246,0.017 -0.364,0.032 -0.886,0.115 -1.425,0.654 -1.606,1.635 -0.04,0.219 -0.059,0.465 -0.065,0.726 -0.002,0.161 -0.007,0.32 0.003,0.496 C -2.55,-1.103 -1.66,-0.067 0,0 m 7.57,9.343 h 3.546 l 1.235,6.992 c -1.284,0 -2.508,-0.029 -3.679,-0.081 C 5.083,16.093 2.03,15.685 -0.493,15.032 -0.832,14.944 -1.159,14.852 -1.479,14.755 -3.8,14.053 -5.624,13.122 -6.933,11.953 -7.354,11.575 -7.745,11.174 -8.116,10.76 -9.325,9.412 -10.262,7.862 -10.94,6.122 c -0.623,-1.601 -1.036,-3.355 -1.212,-5.285 -0.079,-0.922 -0.101,-1.785 -0.082,-2.608 0.024,-1.086 0.125,-2.096 0.321,-3.01 0.229,-1.046 0.613,-1.995 1.144,-2.853 0.514,-0.83 1.167,-1.574 1.964,-2.226 0.346,-0.28 0.717,-0.523 1.1,-0.752 1.483,-0.885 3.254,-1.409 5.317,-1.564 0.464,-0.035 0.938,-0.057 1.432,-0.055 3.137,0.008 5.727,0.587 7.801,1.712 0.954,0.518 1.809,1.139 2.538,1.893 1.913,1.965 2.809,4.375 2.689,7.231 C 11.926,2.151 10.046,4.309 6.435,5.079 6.087,5.152 5.75,5.208 5.416,5.255 2.808,5.628 0.635,5.254 -1.096,4.124 c 0.149,1.3 0.648,2.358 1.493,3.172 1.415,1.365 3.806,2.047 7.173,2.047" /></g><g
           transform="translate(53.145,75.5059)"
           id="g32"><path
             id="path34"
             style="fill:#fdc300;fill-opacity:1;fill-rule:nonzero;stroke:none"
             d="M 0,0 7.57,8.605 5.578,0 Z m 13.208,-11.594 0.816,4.642 h 3.088 l 1.514,7.211 H 15.3 l 2.987,16.714 H 9.682 c -1.78,0 -3.294,-0.645 -4.543,-1.933 L -9.223,0.299 -10.499,-6.952 H 3.925 l -0.837,-4.642 z" /></g><g
           transform="translate(86.8701,63.9717)"
           id="g36"><path
             id="path38"
             style="fill:#fdc300;fill-opacity:1;fill-rule:nonzero;stroke:none"
             d="m 0,0 13.706,21.395 c 0.478,0.757 0.785,1.574 0.916,2.451 l 0.717,4.661 H -8.247 l -1.355,-7.51 H 2.411 L -10.996,0 Z" /></g><g
           transform="translate(118.207,80.2271)"
           id="g40"><path
             id="path42"
             style="fill:#fdc300;fill-opacity:1;fill-rule:nonzero;stroke:none"
             d="m 0,0 c -0.439,-0.014 -0.863,0.105 -1.275,0.359 -0.65,0.393 -0.973,1.069 -0.999,2.001 -0.005,0.23 -0.009,0.465 0.022,0.728 0.214,1.953 1.184,2.928 2.908,2.928 C 0.79,6.016 0.91,6 1.031,5.983 1.912,5.865 2.443,5.321 2.617,4.341 2.654,4.125 2.671,3.883 2.675,3.625 2.677,3.465 2.681,3.305 2.668,3.127 2.549,1.122 1.66,0.08 0,0 m -1.793,-8.706 c -0.943,-0.398 -2.597,-0.597 -4.961,-0.597 -1.58,0 -2.854,0.013 -3.825,0.04 l -1.235,-7.013 c 1.104,0 2.162,0.024 3.18,0.062 3.61,0.139 6.675,0.532 9.203,1.171 0.382,0.095 0.753,0.198 1.112,0.306 2.274,0.686 4.057,1.598 5.33,2.744 0.432,0.385 0.831,0.795 1.21,1.222 1.197,1.349 2.124,2.909 2.789,4.677 0.599,1.592 0.994,3.344 1.161,5.278 0.086,0.921 0.109,1.783 0.092,2.606 C 12.24,2.877 12.138,3.886 11.933,4.801 11.699,5.88 11.338,6.836 10.866,7.68 10.171,8.917 9.221,9.903 8.014,10.633 6.527,11.531 4.655,12.048 2.39,12.177 1.983,12.2 1.566,12.214 1.135,12.212 -1.991,12.201 -4.587,11.636 -6.68,10.539 -7.672,10.02 -8.563,9.39 -9.323,8.625 c -1.979,-1.965 -2.909,-4.375 -2.79,-7.23 0.16,-3.546 2.06,-5.712 5.698,-6.494 0.416,-0.089 0.818,-0.157 1.213,-0.212 2.559,-0.352 4.685,0.023 6.376,1.127 -0.154,-1.354 -0.565,-2.422 -1.219,-3.225 -0.46,-0.567 -1.037,-1.006 -1.748,-1.297" /></g><g
           transform="translate(17.7856,114.6494)"
           id="g44"><path
             id="path46"
             style="fill:#f7941e;fill-opacity:1;fill-rule:nonzero;stroke:none"
             d="m 0,0 13.027,-12.861 c 1.133,1.986 2.403,3.882 3.801,5.676 l -0.053,0.077 z" /></g><g
           transform="translate(59.5518,32.1484)"
           id="g48"><path
             id="path50"
             style="fill:#f7941e;fill-opacity:1;fill-rule:nonzero;stroke:none"
             d="m 0,0 -0.146,-18.217 6.898,16.96 C 4.463,-0.971 2.224,-0.528 0.046,0.07 Z" /></g><g
           transform="translate(42.8975,40.5107)"
           id="g52"><path
             id="path54"
             style="fill:#f7941e;fill-opacity:1;fill-rule:nonzero;stroke:none"
             d="m 0,0 -7.107,-16.774 12.86,13.027 c -1.985,1.133 -3.881,2.402 -5.675,3.8 z" /></g><g
           transform="translate(30.7109,54.6113)"
           id="g56"><path
             id="path58"
             style="fill:#f7941e;fill-opacity:1;fill-rule:nonzero;stroke:none"
             d="M 0,0 -12.987,-12.779 3.886,-5.663 C 2.489,-3.866 1.217,-1.971 0.084,0.018 Z" /></g><g
           transform="translate(35.8823,132.7144)"
           id="g60"><path
             id="path62"
             style="fill:#f7941e;fill-opacity:1;fill-rule:nonzero;stroke:none"
             d="m 0,0 7.115,-16.873 c 1.796,1.397 3.692,2.668 5.679,3.8 l -0.018,0.089 z" /></g><g
           transform="translate(101.5146,115.8262)"
           id="g64"><path
             id="path66"
             style="fill:#f7941e;fill-opacity:1;fill-rule:nonzero;stroke:none"
             d="M 0,0 0.078,0.052 7.183,16.827 -5.678,3.8 C -3.691,2.666 -1.797,1.397 0,0" /></g><g
           transform="translate(113.7803,101.7803)"
           id="g68"><path
             id="path70"
             style="fill:#f7941e;fill-opacity:1;fill-rule:nonzero;stroke:none"
             d="M 0,0 12.984,12.777 -3.89,5.662 c 1.398,-1.796 2.67,-3.693 3.802,-5.68 z" /></g><g
           transform="translate(84.8906,124.1709)"
           id="g72"><path
             id="path74"
             style="fill:#f7941e;fill-opacity:1;fill-rule:nonzero;stroke:none"
             d="M 0,0 0.046,0.069 0.193,18.287 -6.706,1.327 C -4.417,1.042 -2.178,0.598 0,0" /></g><g
           transform="translate(59.6304,124.1792)"
           id="g76"><path
             id="path78"
             style="fill:#f7941e;fill-opacity:1;fill-rule:nonzero;stroke:none"
             d="M 0,0 C 2.177,0.596 4.413,1.039 6.701,1.323 L 6.719,1.415 -0.116,18.301 Z" /></g><g
           transform="translate(109.875,48.9258)"
           id="g80"><path
             id="path82"
             style="fill:#f7941e;fill-opacity:1;fill-rule:nonzero;stroke:none"
             d="M 0,0 0.054,-0.077 16.825,-7.186 3.801,5.676 C 2.668,3.691 1.396,1.795 0,0" /></g><g
           transform="translate(95.8115,36.7461)"
           id="g84"><path
             id="path86"
             style="fill:#f7941e;fill-opacity:1;fill-rule:nonzero;stroke:none"
             d="M 0,0 0.016,-0.083 12.797,-13.07 5.681,3.801 C 3.882,2.406 1.985,1.133 0,0" /></g><g
           transform="translate(78.1572,30.8867)"
           id="g88"><path
             id="path90"
             style="fill:#f7941e;fill-opacity:1;fill-rule:nonzero;stroke:none"
             d="M 0,0 -0.019,-0.092 6.817,-16.977 6.701,1.324 C 4.524,0.727 2.287,0.285 0,0" /></g></g></g></g></svg>